<svg xmlns="http://www.w3.org/2000/svg" width="100%" height="100%" viewBox="200 100 500 500" >
<style>
path{
 -webkit-transition: fill 4s ease;
 -moz-transition: fill 4s ease;
 -o-transition: fill 4s ease;
 transition: fill 4s ease;
}
</style>
<path class="state" state="AC" d="M232.62909650016786,282.0959943710549L272.08312174336857,293.8806281236556L312.02587928124854,313.1420105572197L314.3806803374307,314.0850452204918L292.3432968682555,328.07958383423124L268.750856097828,326.8173376926476L268.92857693225676,309.37218339160665L261.6864529292818,315.4775745264707L251.42307474101676,314.98339213687115L249.0238434762275,308.60968447986465L239.51577883428513,308.34060222541575L242.9813351056472,304.4409296173627L236.09465277153004,295.75814975750296L233.4288402550975,290.93178140968564L233.3844100464903,289.45804939012265L230.71859753005776,287.4491394857479L230.67416732145057,284.5934280558492L232.85124754320373,284.5934280558492Z" style="fill: rgb(255, 167, 166);"></path>
<path class="state" state="AL" d="M671.5106971221699,302.38053026583145L668.8893148143445,306.5920088146216L664.4462939536236,311.6156860393806L660.9363074736543,316.24143963241727L658.1372043314001,318.7138506231999L658.1816345400073,319.2535080664397L657.02644911622,320.9629560673711L656.404426195719,319.8832101594413L655.11595014611,320.0181606321693L655.0715199375028,318.9836693090392L654.2717761825729,318.17427327429107L653.6053230534649,318.5339826264784L650.7617897026036,316.3313164307287L650.6729292853892,315.3427910404659L638.8989240044789,309.5067573012104L636.2775416966537,307.44379247657594L641.2092948520537,302.067080095571L650.7617897026036,308.20606792203336L651.3838126231044,306.90580290642106L653.6941834706793,306.9506326250455L654.5383574342163,307.80249223625515L661.9582022716199,302.02230340029666L664.8461658310885,302.78357192495884L666.8899554270201,301.66410690063503Z" style="fill: rgb(255, 225, 224);"></path>
<path class="state" state="AM" d="M350.7690211867342,176.27276209136264L358.23329623274503,180.30144168009045L363.56492126561,204.94873915572023L360.8546785405704,209.99274856664184L372.40653277844456,219.02038617806477L371.20691714604993,210.56797041216242L376.00537967562843,206.63003579852605L381.4258651257078,211.231697034063L385.9133161950358,208.93081822239765L384.6248401454268,206.9397519393409L388.6235589200754,198.4449083449557L401.6860402505947,198.13520029750796L401.9970517108451,205.83362831731017L408.2617111244615,214.1964795935968L430.56567584528,226.7673510896262L407.28424653510297,278.57483867020875L410.0389194687498,284.45960625886494L407.23981632649577,301.26117199659143L371.7400796493365,301.52979101923705L364.89782752382644,301.1716360908599L356.9003899745288,292.09322602126855L348.76966179940996,292.13790270072553L340.72779404150504,302.8283567194562L333.6189606643519,302.9627139741218L333.7078210815664,308.833933620455L317.7129459829714,308.60968447986465L312.02587928124854,313.1420105572197L272.08312174336857,293.8806281236556L232.62909650016786,282.0959943710549L233.82871213256226,277.7728695680833L240.0933715461788,274.78877156541967L238.62717466214087,269.89282251207044L243.86993927779133,259.2682484909642L258.9762102042422,251.32120085469785L276.2151311438389,250.07879276541536L282.43536034884823,212.64768286028334L275.45981759751646,203.2674673408236L275.28209676308745,194.59561237136603L285.4121843255309,194.37438267529112L285.3677541169237,189.28582835552857L277.5924676106623,189.37433030715633L277.5924676106623,181.71792123116646L296.07543439126084,181.585130313931L304.5616042352376,176.62696791087512L308.60475321849356,180.5227729909234L308.82690426152965,188.00252433038932L326.37683666137684,193.8876745093358Z" style="fill: rgb(94, 0, 20);"></path>
<path class="state" state="AP" d="M501.12084711352657,193.84342811219153L483.2154730448216,209.50602776266243L483.79306575671535,213.97521861844672L476.10663966766845,214.55050028737676L461.71125207893294,187.02894920412265L453.3583728607779,181.4966025805744L448.69320095702085,181.4966025805744L447.18257386437585,173.21741821391888L449.6706655463795,173.08456362686138L452.15875722838314,176.36131423680317L456.64620829771127,176.62696791087512L459.3120208141438,174.5016197383755L464.82136668143755,174.63446213374857L465.976552105225,176.40559013636846L470.064131297088,176.40559013636846L487.08090119364886,150.61077090249296L493.61214185890844,174.98870310717538L504.31982213324557,182.86874232547666L504.0532408816023,189.68408541685403Z" style="fill: rgb(255, 167, 166);"></path>
<path class="state" state="BA" d="M636.2775416966537,307.44379247657594L638.8989240044789,309.5067573012104L639.0766448389079,314.8037055998657L640.8982833918034,315.1181626859787L641.9201781897692,319.1185861757947L640.7205625573746,319.6583039417225L640.7205625573746,323.3935838593468L638.6767729614429,324.02402098900524L638.3213312925852,323.3485569884355L636.5885531569041,323.43861130964063L635.8332396105816,324.6996160551381L638.7656333786573,330.83111998802605L644.8970021664521,333.94628088858065L634.633623978187,350.249814956328L632.4121135478265,348.751630958035L628.1912437301418,352.7939736288391L626.8583374719257,370.5320569557426L629.1242781108932,383.51383731571406L624.1036645382787,400.13147042576173L625.9253030911742,404.95524574661556L624.4146759985291,407.37119918861345L621.7044332734895,408.6267224732436L619.9272249292011,412.86384706405966L612.9961123864766,408.1151228656281L613.8847165586208,405.7447753594189L609.0862540290423,401.38276623476156L610.508020704473,395.7344091000963L613.1294030122982,395.31829616248876L616.5949592836605,385.1241946937148L568.3437527362324,364.40846360535886L547.6392755252735,375.9825043186528L547.7725661510951,371.67613140035246L545.2400442604843,349.4779265096079L541.6411973633004,330.470133198579L550.1717974158844,318.17427327429107L556.6141776639295,324.74466040482173L569.2323569083766,322.583188611947L574.5195517326345,315.6572934057248L572.4313319280955,310.0899641246886L576.6077715371732,306.8161449636842L584.7829299208995,310.852750297081L590.7365778742654,306.6816617825781L594.8241570661286,306.6816617825781L601.8885602346746,299.78406905492454L607.7977779794332,305.42670039793626L607.7089175622189,308.56483617232084L611.6632061282605,308.65453329397417L622.8151884886696,298.26273338323426L631.2569281240392,303.544978639678L632.8564156338987,302.02230340029666L635.477797941724,304.17212398182113L634.7224843954014,305.5163276732441Z" style="fill: rgb(171, 0, 26);"></path>
<path class="state" state="CE" d="M646.7630709279548,255.93749472612762L642.986503196342,257.4472536700678L632.3676833392194,273.49762920298485L630.146172908859,280.2682709111687L632.7231250080771,284.147369032418L630.7681958293599,289.4133979171344L626.0141635083887,289.4133979171344L619.7050738861651,284.63803610211517L609.9304279925793,285.35181811709293L611.7076363368676,278.218393563623L608.2420800655054,276.79284245397173L604.3322217080711,256.9143634470212L601.1332466883521,234.2964364646444L595.4461799866294,232.08158465772254L601.1332466883521,234.2964364646444L615.9285061545523,233.45474899031092L633.4784385543996,243.20427326371873L640.0096792196591,250.43374813448278L646.7186407193476,254.1616839668656Z" style="fill: rgb(94, 0, 20);"></path>
<path class="state" state="DF" d="M533.1994577279308,385.7226070918401L522.2251962019504,385.7226070918401L522.1807659933431,379.33198111149784L533.1994577279308,379.3778962185139Z" style="fill: rgb(171, 0, 26);"></path>
<path class="state" state="ES" d="M605.6206977576801,448.7526378837231L596.645795619024,446.47455477729375L596.6902258276313,442.9681284943789L594.7352966489141,442.4001545295484L595.8460518640943,435.36232315728773L600.3779331420294,435.1737535997215L605.9317092179306,424.03409219970865L604.1100706650351,421.5048325643181L605.4874071318584,418.09074160893863L602.5105831551755,413.09690660249106L605.1319654630008,410.62780790351405L607.3979061019684,410.720928222766L609.1751144462569,408.1616267929555L612.9961123864766,408.1151228656281L619.9272249292011,412.86384706405966L618.3721676279488,418.18420112721185L619.6162134689507,424.83101150574254L618.3721676279488,428.4446586929506L615.2620530254443,430.74776538381445L613.5737050983703,436.06962743739075L609.7527071581505,443.1101495542771L607.309045684754,443.25218165692354Z" style="fill: rgb(235, 77, 85);"></path>
<path class="state" state="GO" d="M496.1002335409121,347.6171562207122L510.2734700866114,352.0214003301248L545.2400442604843,349.4779265096079L547.7725661510951,371.67613140035246L538.5310827607957,373.1871011103286L538.8865244296534,383.65182510240095L533.1994577279308,385.7226070918401L533.1994577279308,379.3778962185139L522.1807659933431,379.33198111149784L522.2251962019504,385.7226070918401L533.1994577279308,385.7226070918401L533.5104691881812,409.55722231719903L526.8903681057072,415.19563055619847L522.4473472449865,412.95706772380527L513.8278867751881,413.0502925907023L509.47372633168163,416.96956403141155L499.1659179348093,417.24980025671505L492.01265434904894,426.5196750762701L470.5084333831601,416.36251817300877L467.70933024090607,408.81278949816647L465.8432614794033,404.5373773667681L468.553504204443,395.0409304609745L476.9508136312054,383.83582128227647L481.8825667866055,383.00795053712943L484.3706584686091,374.1949184960114L490.23544600476055,373.1871011103286Z" style="fill: rgb(255, 167, 166);"></path>
<path class="state" state="MA" d="M519.2039420166602,259.8901549390914L530.4892150028911,252.87446834255607L538.0423504661164,241.74129685624595L547.2394036478086,213.00168751416987L562.0346631140089,218.5335299141021L565.9445214714432,228.18429864297582L570.6985537924145,229.778517964054L575.8968881994577,226.4574102084766L587.7153236889751,232.25875929401002L595.4906101952366,232.1701716888063L582.2504080302887,249.32456074066184L583.0057215766112,277.06010552658887L576.6966319543876,279.59974767727306L575.0082840273137,276.79284245397173L569.7655194116631,278.70851154743826L564.2561735443693,284.54882040002786L554.2593766077475,288.52045501936954L548.5278796974177,302.1118572655295L550.1717974158844,318.17427327429107L543.5961265420175,316.5560179583929L541.4634765288715,311.84010752686214L536.2207119132208,303.81374361516464L538.9753848468679,296.4736012996221L542.618661952659,295.89228823455943L541.9966390321581,290.8424513486656L536.2207119132208,292.1825798068461L529.0674483274605,283.52295158790713L532.5330045988227,272.3848034815079L531.0223775061776,263.4893971638806Z" style="fill: rgb(235, 77, 85);"></path>
<path class="state" state="MG" d="M616.5949592836605,385.1241946937148L613.1294030122982,395.31829616248876L610.508020704473,395.7344091000963L609.0862540290423,401.38276623476156L613.8847165586208,405.7447753594189L612.9961123864766,408.1151228656281L609.1751144462569,408.1616267929555L607.3979061019684,410.720928222766L605.1319654630008,410.62780790351405L602.5105831551755,413.09690660249106L605.4874071318584,418.09074160893863L604.1100706650351,421.5048325643181L605.9317092179306,424.03409219970865L600.3779331420294,435.1737535997215L595.8460518640943,435.36232315728773L594.7352966489141,442.4001545295484L593.8911226853771,444.53096876603377L592.3804955927321,444.4835902537569L589.3592414074419,452.65110110026194L589.9812643279429,453.7461166967339L581.1396528151083,458.27628363908156L578.1628288384254,456.89213990358576L562.256814157045,462.1482391215329L544.1737192539113,468.2849105611121L531.5999702180713,432.7240608332263L491.70164288879835,431.92388520192526L492.01265434904894,426.5196750762701L499.1659179348093,417.24980025671505L509.47372633168163,416.96956403141155L513.8278867751881,413.0502925907023L522.4473472449865,412.95706772380527L526.8903681057072,415.19563055619847L533.5104691881812,409.55722231719903L533.1994577279308,385.7226070918401L538.8865244296534,383.65182510240095L538.5310827607957,373.1871011103286L547.7725661510951,371.67613140035246L547.6392755252735,375.9825043186528L568.3881829448396,364.54540195914535Z" style="fill: rgb(171, 0, 26);"></path>
<path class="state" state="MS" d="M467.70933024090607,408.81278949816647L470.5084333831601,416.36251817300877L492.01265434904894,426.5196750762701L491.70164288879835,431.92388520192526L474.8181636180592,459.3270632791787L467.5760396150845,464.35104002222647L461.9778333305761,468.62115669571955L457.8458239301058,474.8299358634859L454.5135582845652,482.2730260798978L449.4929447119506,480.5783932587481L442.0286696659397,481.7886620469675L436.5193237986459,460.4741001047465L412.4825809421462,459.70932385674405L412.7935924023967,444.57834851378595L409.10588508799844,432.3474657191132L417.947496600833,407.97561722984017L426.7891081136672,400.91923971408755L435.053126914608,398.880889114085L444.7833425995866,404.6766577764405L456.1130457944247,404.39810599806185L460.867078115396,399.2050455719135L460.8226479067888,404.6302299682337L456.55734788049676,408.85930882487355Z" style="fill: rgb(255, 167, 166);"></path>
<path class="state" state="MT" d="M381.6035859601367,358.11686305143786L391.067220393472,341.8607181321432L391.1560808106864,326.86240983111065L371.651219232122,326.63705510066416L371.7400796493365,301.52979101923705L407.23981632649577,301.26117199659143L410.0389194687498,284.45960625886494L426.03379456734467,308.3854480034189L500.1433825241679,313.41142514842085L494.3230251966237,331.82403743866826L496.1002335409121,347.6171562207122L490.23544600476055,373.1871011103286L484.3706584686091,374.1949184960114L481.8825667866055,383.00795053712943L476.9508136312054,383.83582128227647L468.553504204443,395.0409304609745L465.8432614794033,404.5373773667681L467.70933024090607,408.81278949816647L456.55734788049676,408.85930882487355L460.8226479067888,404.6302299682337L460.867078115396,399.2050455719135L456.1130457944247,404.39810599806185L444.7833425995866,404.6766577764405L435.053126914608,398.880889114085L426.7891081136672,400.91923971408755L417.947496600833,407.97561722984017L408.3061413330687,400.13147042576173L408.3061413330687,388.25604396527723L387.2906526618592,388.30213195078267L387.1573620360376,379.28606687153325L382.7143411753168,374.1490998176113L386.44647869832227,374.3323795703498L386.2243276552863,368.65688301569867L384.7581307712484,361.85357606962225Z" style="fill: rgb(255, 167, 166);"></path>
<path class="state" state="PA" d="M547.2394036478086,213.00168751416987L538.0423504661164,241.74129685624595L530.4892150028911,252.87446834255607L519.2039420166602,259.8901549390914L516.8491409604782,262.02281570016476L523.202660791309,264.6451077875694L517.0268617949071,277.68376907035736L513.6501659407592,278.57483867020875L509.6958773747177,287.5830411366934L512.1839690567214,290.2171879132879L500.1433825241679,313.41142514842085L426.03379456734467,308.3854480034189L410.0389194687498,284.45960625886494L407.28424653510297,278.57483867020875L430.56567584528,226.7673510896262L408.2617111244615,214.1964795935968L401.9970517108451,205.83362831731017L401.6860402505947,198.13520029750796L401.952621502238,186.67491409815983L421.67963412383824,179.50462868376212L434.43110399410705,179.06194076624377L433.9423716994279,173.12884861953944L447.18257386437585,173.21741821391888L448.69320095702085,181.4966025805744L453.3583728607779,181.4966025805744L461.71125207893294,187.02894920412265L476.10663966766845,214.55050028737676L483.79306575671535,213.97521861844672L483.2154730448216,209.50602776266243L501.12084711352657,193.84342811219153L502.89805545781496,197.5600262873777L507.1633554841069,197.2060716477385L520.4035576490548,204.1523448373121L520.6257086920909,206.9397519393409L525.9573337249559,208.79807843117305L529.378459787711,206.14334145219152Z" style="fill: rgb(255, 167, 166);"></path>
<path class="state" state="PB" d="M673.1990450492438,274.96688273411087L674.9318231849247,287.0920861825033L672.1327200426707,285.35181811709293L667.4675481389138,286.1103220662469L666.8010950098057,288.29724494127987L661.513900185548,290.3065062383955L658.759227251901,289.859931292548L654.8937991030739,291.423126882762L654.5827876428234,293.8806281236556L650.2730574079243,295.84757496439033L646.5409198849188,291.51246791683064L650.628499076782,286.0657010154724L647.0740823882054,283.8797522709003L639.2099354647294,289.1454977564235L630.7681958293599,289.4133979171344L632.7231250080771,284.147369032418L630.146172908859,280.2682709111687L632.3676833392194,273.49762920298485L637.6104479548699,275.01141138708766L647.2073730140269,269.2699857406408L648.2736980206,271.00518763260953L644.7637115406305,277.1491960511137L653.5608928448577,280.6248506097529L657.248600159256,274.78877156541967Z" style="fill: rgb(255, 167, 166);"></path>
<path class="state" state="PE" d="M674.9318231849247,287.0920861825033L671.5106971221699,302.38053026583145L666.8899554270201,301.66410690063503L664.8461658310885,302.78357192495884L661.9582022716199,302.02230340029666L654.5383574342163,307.80249223625515L653.6941834706793,306.9506326250455L651.3838126231044,306.90580290642106L650.7617897026036,308.20606792203336L641.2092948520537,302.067080095571L636.2775416966537,307.44379247657594L634.7224843954014,305.5163276732441L635.477797941724,304.17212398182113L632.8564156338987,302.02230340029666L631.2569281240392,303.544978639678L622.8151884886696,298.26273338323426L611.6632061282605,308.65453329397417L607.7089175622189,308.56483617232084L607.7977779794332,305.42670039793626L601.8885602346746,299.78406905492454L609.9304279925793,292.9868409217887L609.8859977839721,290.2171879132879L607.975498813862,289.5027012768839L608.0199290224693,286.1549435147305L609.9304279925793,285.35181811709293L619.7050738861651,284.63803610211517L626.0141635083887,289.4133979171344L630.7681958293599,289.4133979171344L639.2099354647294,289.1454977564235L647.0740823882054,283.8797522709003L650.628499076782,286.0657010154724L646.5409198849188,291.51246791683064L650.2730574079243,295.84757496439033L654.5827876428234,293.8806281236556L654.8937991030739,291.423126882762L658.759227251901,289.859931292548L661.513900185548,290.3065062383955L666.8010950098057,288.29724494127987L667.4675481389138,286.1103220662469L672.1327200426707,285.35181811709293Z" style="fill: rgb(171, 0, 26);"></path>
<path class="state" state="PI" d="M595.4906101952366,232.1701716888063L601.1332466883521,234.2964364646444L604.3322217080711,256.9143634470212L608.2420800655054,276.79284245397173L611.7076363368676,278.218393563623L609.9304279925793,285.35181811709293L608.0199290224693,286.1549435147305L607.975498813862,289.5027012768839L609.8859977839721,290.2171879132879L609.9304279925793,292.9868409217887L601.8885602346746,299.78406905492454L594.8241570661286,306.6816617825781L590.7365778742654,306.6816617825781L584.7829299208995,310.852750297081L576.6077715371732,306.8161449636842L572.4313319280955,310.0899641246886L574.5195517326345,315.6572934057248L569.2323569083766,322.583188611947L556.6141776639295,324.74466040482173L550.1717974158844,318.17427327429107L548.5278796974177,302.1118572655295L554.2593766077475,288.52045501936954L564.2561735443693,284.54882040002786L569.7655194116631,278.70851154743826L575.0082840273137,276.79284245397173L576.6966319543876,279.59974767727306L583.0057215766112,277.06010552658887L582.2504080302887,249.32456074066184Z" style="fill: rgb(255, 225, 224);"></path>
<path class="state" state="PR" d="M467.5760396150845,464.35104002222647L505.3861471398185,470.15914668335404L511.7396669706493,488.92375503812275L525.113159761419,497.2160835953471L518.5819190961593,506.6361463863719L512.095108639507,506.6361463863719L508.0963898648582,509.49351842737804L503.7866596299591,507.1284030874475L496.0558033323048,507.2268740481382L494.5007460310526,509.74010287698866L488.36937724325776,510.67750122654184L487.03647098504155,514.8784972258806L461.40024061868246,510.1840591078655L457.890254138713,502.3603654133902L450.64813013573803,501.7715599435935L454.5135582845652,482.2730260798978L457.8458239301058,474.8299358634859L461.9778333305761,468.62115669571955Z" style="fill: rgb(171, 0, 26);"></path>
<path class="state" state="RJ" d="M562.3456745742593,473.91399357441276L560.968338107436,469.53416676840965L568.2104621104108,466.7006601201633L567.2774277296594,464.30312262712806L564.2117433357621,465.3576191613662L562.256814157045,462.1482391215329L578.1628288384254,456.89213990358576L581.1396528151083,458.27628363908156L589.9812643279429,453.7461166967339L589.3592414074419,452.65110110026194L592.3804955927321,444.4835902537569L593.8911226853771,444.53096876603377L594.7352966489141,442.4001545295484L596.6902258276313,442.9681284943789L596.645795619024,446.47455477729375L605.6206977576801,448.7526378837231L604.0212102478206,451.36651480726016L605.0431050457864,457.08299059616525L602.2440019035323,458.8015934648668L598.4674341719196,460.1394685923506L593.5801112251266,464.54272317191055L594.9130174833429,466.12493987575675L593.1358091390546,468.81332777172105L581.8505361528237,469.1016259293725L575.497016321993,470.15914668335404L572.5201923453101,468.525079459192L563.9451620841189,471.74669303706617L564.4338943787982,473.23941614334547Z" style="fill: rgb(94, 0, 20);"></path>
<path class="state" state="RN" d="M646.7630709279548,255.93749472612762L653.9163345137154,258.95731516929953L662.0026324802272,258.55756310142135L668.7560241885228,260.51211493853367L673.1990450492438,274.96688273411087L657.248600159256,274.78877156541967L653.5608928448577,280.6248506097529L644.7637115406305,277.1491960511137L648.2736980206,271.00518763260953L647.2073730140269,269.2699857406408L637.6104479548699,275.01141138708766L632.3676833392194,273.49762920298485L642.986503196342,257.4472536700678Z" style="fill: rgb(235, 77, 85);"></path>
<path class="state" state="RO" d="M312.02587928124854,313.1420105572197L317.7129459829714,308.60968447986465L333.7078210815664,308.833933620455L333.6189606643519,302.9627139741218L340.72779404150504,302.8283567194562L348.76966179940996,292.13790270072553L356.9003899745288,292.09322602126855L364.89782752382644,301.1716360908599L371.7400796493365,301.52979101923705L371.651219232122,326.63705510066416L391.1560808106864,326.86240983111065L391.067220393472,341.8607181321432L381.6035859601367,358.11686305143786L377.51600676827354,355.88638197731376L368.09680254354544,356.2504194275331L364.58681606357595,352.1577215593287L345.9705586571556,343.21951129802596L341.4831075878278,344.98685686325035L328.9982189692022,335.07570116662293L329.0426491778094,314.1748702817102L314.3806803374307,314.0850452204918Z" style="fill: rgb(255, 225, 224);"></path>
<path class="state" state="RR" d="M401.952621502238,186.67491409815983L401.6860402505947,198.13520029750796L388.6235589200754,198.4449083449557L384.6248401454268,206.9397519393409L385.9133161950358,208.93081822239765L381.4258651257078,211.231697034063L376.00537967562843,206.63003579852605L371.20691714604993,210.56797041216242L372.40653277844456,219.02038617806477L360.8546785405704,209.99274856664184L363.56492126561,204.94873915572023L358.23329623274503,180.30144168009045L350.7690211867342,176.27276209136264L350.5913003523053,173.83739090880326L343.97119926983135,173.88167371278507L341.4386773792205,160.67887353281193L334.19655337624556,153.27302371911242L335.2184481742113,152.4300659976164L337.39552839596456,154.33769751309822L342.59386280300794,154.64820358372526L344.06005968704574,156.86579967996826L353.12382224291616,156.46667118289295L355.3897628818838,160.23556696321265L358.45544727578124,159.3488964752711L357.1669712261722,156.1562262622964L362.80960771928756,153.84973778790436L366.05301294761375,154.69256072577426L381.0704234568501,146.92658071878134L380.9371328310285,141.77464763473478L389.0678610061475,141.59693015402542L389.3344422577908,149.81193177349365L393.46645165826124,151.4095337260346L393.64417249269,158.06308555302235L389.6454537180414,167.1934150319535L389.86760476107736,174.41305752174614L392.1335454000449,175.21009975209404L392.1779756086522,179.99157376233498L397.90947251898194,185.74555112227586Z" style="fill: rgb(255, 167, 166);"></path>
<path class="state" state="RS" d="M459.1787301883221,521.7250276676148L482.63788033292803,524.8615632237313L496.2335241667337,537.076135782318L504.40868255045996,539.4917865233786L502.4093231631356,546.2077377045426L505.4305773484257,549.2485293792474L499.4324991864527,564.7128723241249L493.52328144169394,573.8849220085843L489.1246907895803,578.3923057815487L479.26118447878014,586.6202643686506L479.21675427017294,582.6035734991156L481.3938344919261,582.6035734991156L486.72545952479106,578.1847121581507L494.94504811712454,565.0209679199601L489.2135512067947,563.7377245605162L483.74863554810815,574.6608990260959L476.9952438398126,582.55149495515L478.77245218410087,583.7498591408846L478.77245218410087,586.8815443755934L476.15106987627564,590.440526253353L473.8406990287008,598.3284720173266L471.352607346697,601.9744623569007L464.37706459536537,608.3422142004613L462.5998562510771,606.5345152093089L463.9327625092933,601.7627946890832L468.4646437872285,595.2723248512166L470.90830526062507,597.0102100036947L473.263106316807,591.2270016904922L471.26374692948264,589.7069425826005L466.42085419129694,593.3267736456703L440.0293102786153,570.1668803945219L434.9642664973936,572.7993591961769L418.83610077297715,558.9241440828339L438.7408342290063,534.0625553359064Z" style="fill: rgb(171, 0, 26);"></path>
<path class="state" state="SC" d="M461.40024061868246,510.1840591078655L487.03647098504155,514.8784972258806L488.36937724325776,510.67750122654184L494.5007460310526,509.74010287698866L496.0558033323048,507.2268740481382L503.7866596299591,507.1284030874475L508.0963898648582,509.49351842737804L512.095108639507,506.6361463863719L518.5819190961593,506.6361463863719L519.9148253543756,509.8387482314631L517.7377451326223,515.868732958193L518.8485003478025,524.1639548467859L518.7596399305882,530.4549292708556L516.9380013776927,538.8874724211641L505.4305773484257,549.2485293792474L502.4093231631356,546.2077377045426L504.40868255045996,539.4917865233786L496.2335241667337,537.076135782318L482.63788033292803,524.8615632237313L459.1787301883221,521.7250276676148Z" style="fill: rgb(171, 0, 26);"></path>
<path class="state" state="SE" d="M638.8989240044789,309.5067573012104L650.6729292853892,315.3427910404659L650.7617897026036,316.3313164307287L653.6053230534649,318.5339826264784L654.2717761825729,318.17427327429107L655.0715199375028,318.9836693090392L655.11595014611,320.0181606321693L656.404426195719,319.8832101594413L657.02644911622,320.9629560673711L656.7154376559695,321.4579486342597L655.4713918149677,321.4579486342597L651.2060917886756,324.42936225248627L644.8970021664521,333.94628088858065L638.7656333786573,330.83111998802605L635.8332396105816,324.6996160551381L636.5885531569041,323.43861130964063L638.3213312925852,323.3485569884355L638.6767729614429,324.02402098900524L640.7205625573746,323.3935838593468L640.7205625573746,319.6583039417225L641.9201781897692,319.1185861757947L640.8982833918034,315.1181626859787L639.0766448389079,314.8037055998657Z" style="fill: rgb(255, 225, 224);"></path>
<path class="state" state="SP" d="M562.3456745742593,473.91399357441276L554.5703880679979,477.48425045944646L555.1924109884989,478.6921936672403L553.5929234786395,479.8526701667342L550.9715411708141,478.9338907097005L547.7281359424879,479.4657517670398L538.5310827607957,484.551511981069L525.113159761419,497.2160835953471L511.7396669706493,488.92375503812275L505.3861471398185,470.15914668335404L467.5760396150845,464.35104002222647L474.8181636180592,459.3270632791787L491.70164288879835,431.92388520192526L531.5999702180713,432.7240608332263L544.1737192539113,468.2849105611121L562.256814157045,462.1482391215329L564.2117433357621,465.3576191613662L567.2774277296594,464.30312262712806L568.2104621104108,466.7006601201633L560.968338107436,469.53416676840965Z" style="fill: rgb(94, 0, 20);"></path>
<path class="state" state="TO" d="M550.1717974158844,318.17427327429107L541.6411973633004,330.470133198579L545.2400442604843,349.4779265096079L510.2734700866114,352.0214003301248L496.1002335409121,347.6171562207122L494.3230251966237,331.82403743866826L500.1433825241679,313.41142514842085L512.1839690567214,290.2171879132879L509.6958773747177,287.5830411366934L513.6501659407592,278.57483867020875L517.0268617949071,277.68376907035736L523.202660791309,264.6451077875694L516.8491409604782,262.02281570016476L519.2039420166602,259.8901549390914L531.0223775061776,263.4893971638806L532.5330045988227,272.3848034815079L529.0674483274605,283.52295158790713L536.2207119132208,292.1825798068461L541.9966390321581,290.8424513486656L542.618661952659,295.89228823455943L538.9753848468679,296.4736012996221L536.2207119132208,303.81374361516464L541.4634765288715,311.84010752686214L543.5961265420175,316.5560179583929Z" style="fill: rgb(255, 225, 224);"></path>

</svg>